<?xml version="1.0" encoding="UTF-8"?><svg id="Layer_1" xmlns="http://www.w3.org/2000/svg" width="253.278" height="85" viewBox="0 0 253.278 85"><defs><style>.cls-1{fill:none;stroke:#120a2d;stroke-width:2px;}</style></defs><path class="cls-1" d="M32.921,57.52c5.2-.32,10.32-.72,15.28-1.44l.96,9.281c-15.601,3.119-32.241,3.119-44.641,3.119l-1.52-10.32c5.04,0,10.88,0,16.96-.16v-5.44c-7.36-1.76-12.24-6.88-12.16-13.44,0-8.4,7.84-14.24,18.72-14.24s18.721,5.84,18.721,14.24c0,6.56-4.88,11.68-12.32,13.44v4.96Zm15.36-34.801H4.52V12.719h15.44V5.439h12.96v7.28h15.36v10Zm-28.241,16.4c0,3.2,2.56,4.64,6.48,4.64s6.48-1.44,6.48-4.64c0-3.12-2.561-4.56-6.48-4.56s-6.48,1.44-6.48,4.56Zm52.721,6.08h-8.24v34.721h-12.96V4.959h12.96v29.681h8.24v10.56Z"/><path class="cls-1" d="M119.081,36.959c0,16.8-8.561,27.201-20.081,27.201s-20.081-10.4-20.081-27.201,8.56-27.201,20.081-27.201,20.081,10.4,20.081,27.201Zm-27.761,0c0,10.561,3.04,15.44,7.68,15.44s7.68-4.88,7.68-15.44-3.04-15.44-7.68-15.44-7.68,4.88-7.68,15.44ZM139.882,4.719V80.241h-12.961V4.719h12.961Z"/><path class="cls-1" d="M196.521,45.84c-10.4,1.6-20.08,1.76-35.521,1.76h-6.64V9.999h36.4v10.08h-23.521v3.76h21.2v9.84h-21.2v3.92c11.521-.08,19.36-.4,28.081-1.76l1.199,10Zm17.041,19.68c0,9.28-10,14.561-26.001,14.561s-25.921-5.28-25.921-14.561,10-14.64,25.921-14.64c16.001,0,26.001,5.36,26.001,14.64Zm-12.881,0c0-3.52-4.24-4.88-13.12-4.88-8.8,0-13.04,1.36-13.04,4.88,0,3.44,4.24,4.8,13.04,4.8,8.88,0,13.12-1.359,13.12-4.8Zm12.561-15.76h-12.961V4.959h12.961V49.76Z"/><path class="cls-1" d="M228.279,64.64c0-4.96,3.521-8.8,8.4-8.8,4.96,0,8.48,3.84,8.48,8.8s-3.521,8.881-8.48,8.881c-4.88,0-8.4-3.921-8.4-8.881Zm1.761-40.881l-.48-12.72h14.32l-.48,12.72-2.08,27.041h-9.2l-2.079-27.041Z"/></svg>